<svg width="300" height="464" viewBox="0 0 300 464" fill="none" xmlns="http://www.w3.org/2000/svg">
<path d="M262.776 0L263.748 0.212683C263.748 0.212683 246.468 13.5783 245.299 25.8612C244.884 30.2144 244.642 32.9509 246.247 37.0184C249.153 44.3798 255.471 45.4311 262.398 49.2598C270.246 53.5979 276.34 52.3488 284.029 56.9625C290.106 60.6087 295.343 62.0168 297.946 68.6086C299.946 73.6756 300.916 77.5193 298.845 82.5578C296.08 89.2867 290.958 91.694 283.996 93.8071C278.781 95.3901 274.588 95.4721 269.147 95.157C241.137 93.5351 235.538 57.1991 207.501 58.2592C196.26 58.6843 187.907 57.2478 179.651 65.6183C172.697 72.6689 171.111 78.5122 171.503 88.4074C171.926 99.0871 178.375 103.679 184.097 112.706C191.327 124.11 199.819 127.548 205.696 139.704C209.082 146.708 211.889 150.824 211.996 158.603C212.069 163.979 211.092 167.035 209.296 172.102C205.359 183.209 189.925 197.761 189.925 197.761L188.511 194.849C188.511 194.849 203.072 182.546 207.046 171.652C208.771 166.925 209.796 164.085 209.746 159.053C209.67 151.382 206.434 147.463 202.996 140.604C196.994 128.631 188.893 124.996 181.847 113.606C176.038 104.213 169.585 99.3391 169.221 88.3011C168.888 78.222 171.199 71.3163 178.253 64.1089C186.494 55.6878 196.214 56.3399 208.401 56.0094C236.448 55.2486 241.999 92.1767 270.047 92.9072C275.329 93.0447 278.547 93.7154 283.546 92.0072C289.599 89.9391 294.246 88.0571 296.596 82.1078C298.259 77.897 297.94 74.8381 296.596 70.5148C294.373 63.3644 289.025 61.281 282.646 57.3593C275.677 53.0744 270.088 54.3602 262.807 50.6291C255.306 46.7855 248.433 45.834 245.299 38.0104C243.529 33.5941 243.863 30.5885 244.399 25.8612C245.795 13.5503 262.776 0 262.776 0Z" fill="#DDDDDD"/>
<path d="M20.8391 307.782L28.9392 310.931L55.0371 301.482C55.0371 301.482 60.4104 305.972 63.5866 309.131C65.9667 311.499 67.8202 312.488 69.4362 315.431C70.0804 316.604 71.1961 317.307 70.7862 318.581C70.4415 319.652 69.5828 319.967 68.5363 320.381C67.2288 320.897 66.3304 320.563 64.9365 320.381C61.6628 319.952 57.7369 316.781 56.387 317.681C55.0371 318.581 54.8958 320.723 54.1371 323.531C53.3785 326.339 58.7765 334.069 56.387 340.18C55.7281 341.865 55.7598 343.429 54.1371 344.229C52.8763 344.851 51.8867 344.624 50.5373 344.229C48.03 343.496 47.5909 341.38 46.0376 339.28C43.14 335.362 40.6379 328.03 40.6379 328.03C40.6379 328.03 42.3766 333.721 42.8878 337.48C43.2438 340.097 43.9854 341.668 43.3378 344.229C43.0097 345.527 43.1088 346.648 41.9878 347.379C41.2373 347.869 40.634 347.829 39.738 347.829C38.8419 347.829 38.3023 347.753 37.4881 347.379C36.016 346.703 35.6742 345.586 34.7883 344.229C33.539 342.317 33.3907 340.949 32.5384 338.83C30.6508 334.135 28.0387 326.68 28.0387 326.68C28.0387 326.68 28.9172 334.982 28.0387 340.18C27.7687 341.777 28.5055 343.36 27.1387 344.229C26.5274 344.618 26.0633 344.679 25.3388 344.679C24.6143 344.679 24.1937 344.54 23.5389 344.229C21.8211 343.416 21.7107 341.869 20.8391 340.18C19.4883 337.562 19.1293 335.876 18.5892 332.98C17.7515 328.489 17.4717 325.858 17.6896 321.281C17.8243 318.451 17.9208 316.835 18.5892 314.081C19.2054 311.543 20.8391 307.782 20.8391 307.782Z" fill="#C0C0C0"/>
<path d="M28.0398 181.788C28.0398 181.788 56.6423 150.965 80.2367 139.49C105.435 127.236 150.433 124.641 150.433 124.641C150.433 124.641 168.698 151.099 177.431 169.639C190.556 197.504 199.929 245.234 199.929 245.234L101.385 303.281C101.385 303.281 74.6164 272.642 60.8878 250.634C45.1213 225.359 28.0398 181.788 28.0398 181.788Z" fill="#CACACA"/>
<path d="M63.1368 134.092C39.5422 145.566 10.9399 176.389 10.9399 176.389C10.9399 176.389 28.0213 219.96 43.788 245.235C57.5166 267.243 84.2847 297.882 84.2847 297.882L101.385 303.282C101.385 303.282 74.6156 272.643 60.887 250.635C45.1203 225.36 28.0389 181.789 28.0389 181.789C28.0389 181.789 56.6412 150.966 80.2358 139.491C105.433 127.237 150.432 124.642 150.432 124.642C150.432 124.642 168.698 151.1 177.43 169.64C189.555 195.379 198.477 238.07 199.767 244.432L199.929 244.335C199.929 244.335 194.091 200.8 182.83 175.489C173.258 153.977 150.432 124.642 150.432 124.642L133.333 119.243C133.333 119.243 88.3345 121.837 63.1368 134.092Z" fill="#ACAAAA"/>
<path d="M10.9399 176.389C10.9399 176.389 28.0214 219.96 43.788 245.235C57.5166 267.243 84.2847 297.882 84.2847 297.882L101.385 303.281C101.385 303.281 74.6156 272.643 60.887 250.635C45.1203 225.359 28.0389 181.789 28.0389 181.789L10.9399 176.389Z" fill="#BBB8B8"/>
<path d="M40.637 328.031C40.637 328.031 43.1391 335.362 46.0366 339.28C47.59 341.38 48.029 343.497 50.5363 344.23C51.8857 344.624 52.8753 344.851 54.1361 344.23C55.3969 343.608 54.4427 342.286 53.687 341.53C52.9313 340.774 51.9298 341.584 50.9872 341.08C49.3918 340.227 49.6899 338.568 48.7373 337.03C47.6079 335.206 46.6642 334.386 45.5875 332.53C44.7986 331.171 45.0411 329.879 43.7876 328.93C42.7671 328.158 40.637 328.031 40.637 328.031Z" fill="#D6D6D6"/>
<path d="M28.0386 326.68C28.0386 326.68 30.6507 334.135 32.5383 338.829C33.3905 340.948 33.5388 342.316 34.7881 344.229C35.6741 345.585 36.0158 346.702 37.4879 347.378C38.3021 347.752 38.8418 347.828 39.7378 347.828C40.6338 347.828 40.2386 346.751 40.1886 346.028C40.0941 344.659 40.5504 344.435 39.7387 343.329C38.5266 341.676 37.8663 341.985 36.8982 340.179C35.7096 337.961 34.5325 335.245 33.4382 332.979C32.5839 331.21 33.4131 329.931 32.0892 328.48C31.3307 327.648 29.7597 326.864 28.0386 326.68Z" fill="#D6D6D6"/>
<path d="M18.5892 314.081C17.9208 316.835 17.8243 318.45 17.6896 321.281C17.4717 325.858 17.7515 328.488 18.5892 332.98C19.1293 335.876 19.4883 337.562 20.8391 340.179C21.7107 341.869 21.8211 343.416 23.5389 344.229C24.1937 344.539 24.6143 344.679 25.3388 344.679C25.3388 344.679 23.3549 338.722 22.6395 334.78C22.0714 331.648 21.5382 329.856 21.7396 326.68C21.9338 323.618 22.3713 321.869 23.5389 319.031C24.9853 315.515 28.9392 310.931 28.9392 310.931L20.8391 307.781C20.8391 307.781 19.2054 311.542 18.5892 314.081Z" fill="#D6D6D6"/>
<path d="M55.5503 165.302C55.5141 164.987 55.7828 164.722 56.0985 164.755C59.829 165.135 62.5854 165.081 66.7352 164.689C74.7141 163.937 79.068 162.203 86.534 159.29C90.1243 157.889 92.0988 156.988 95.5335 155.24C102.008 151.945 105.452 149.673 111.283 145.34C116.99 141.099 120.617 139.104 125.021 133.464C125.148 133.301 125.364 133.228 125.558 133.297C131.161 135.292 132.415 145.088 134.231 147.14C137.069 154.592 123.598 151.086 117.582 156.59C111.068 162.551 106.566 164.769 98.2333 168.289C90.388 171.604 84.6339 173.069 76.1846 174.139C68.8295 175.071 60.8855 179.539 60.8855 179.539C57.9563 173.91 56.1701 170.693 55.5503 165.302Z" fill="url(#paint0_linear_31_6)"/>
<path d="M198.578 368.077C198.939 365.999 198.578 362.677 198.578 362.677L230.076 370.777L227.827 378.427C227.827 378.427 239.616 391.119 241.326 401.375C242.226 406.775 239.66 418.924 231.876 418.924C217.928 418.924 212.406 412.613 204.428 403.175C197.307 394.751 190.626 387.69 193.629 377.077C194.72 373.217 197.893 372.029 198.578 368.077Z" fill="#C0C0C0"/>
<path d="M227.828 378.426L230.077 370.777H218.828C218.828 370.777 216.674 374.822 217.028 377.526C217.485 381.011 219.56 382.694 222.428 384.726C225.422 386.847 228.413 385.334 231.427 387.426C234.2 389.351 234.876 391.421 236.827 394.176C238.743 396.881 241.327 401.375 241.327 401.375C239.617 391.119 227.828 378.426 227.828 378.426Z" fill="#9C9C9C"/>
<path d="M198.578 368.077C197.893 372.029 194.72 373.217 193.629 377.077C190.626 387.69 197.307 394.751 204.428 403.175C212.406 412.613 217.928 418.924 231.876 418.924C231.876 418.924 222.184 416.576 217.028 413.074C211.365 409.23 208.956 405.829 205.328 400.025C202.954 396.226 201.297 394.061 200.379 389.676C199.586 385.892 199.139 383.438 200.379 379.776C201.316 377.006 203.261 376.158 204.428 373.477C205.517 370.975 206.228 366.727 206.228 366.727L198.578 362.677C198.578 362.677 198.939 365.999 198.578 368.077Z" fill="#D6D6D6"/>
<path d="M56.1187 168.739C58.817 169.639 64.7059 170.052 69.0796 169.639C77.0585 168.886 81.7705 167.603 89.2365 164.69C92.8268 163.288 94.8012 162.388 98.236 160.64C104.71 157.345 109.054 154.623 114.885 150.29C120.683 145.982 127.393 141.291 129.644 136.791C130.544 137.691 131.512 140.336 132.526 143.991C132.526 143.991 125.942 155.135 119.927 160.64C113.412 166.601 108.911 168.818 100.578 172.339C92.7324 175.654 86.9783 177.118 78.5291 178.189C71.174 179.12 59.6302 176.389 59.6302 176.389C58.7285 176.389 56.5669 171.439 56.1187 168.739Z" fill="url(#paint1_linear_31_6)"/>
<path d="M234.575 128.242C234.575 128.242 237.667 127.979 239.525 127.342C241.608 126.627 242.7 125.946 244.475 124.642C246.477 123.17 247.203 121.885 248.974 120.142C254.293 114.911 262.924 107.093 262.924 107.093C262.924 107.093 264.596 106.346 265.623 106.643C266.468 106.886 266.869 107.311 267.423 107.993C267.919 108.603 268.168 109.022 268.323 109.793C268.534 110.84 268.126 111.454 267.873 112.492C266.732 117.181 261.124 122.64 262.024 123.292L262.924 123.742C263.824 123.742 268.133 119.452 271.923 117.442C273.799 116.448 274.816 115.72 276.873 115.192C278.753 114.71 280.189 113.694 281.822 114.742C282.889 115.427 283.289 116.22 283.622 117.442C283.9 118.459 283.744 119.095 283.622 120.142C282.95 125.945 271.878 128.692 272.823 130.491C273.118 131.052 273.156 131.558 273.723 131.841C274.623 132.291 278.151 131.897 280.923 131.391C284.586 130.723 286.211 128.55 289.922 128.242C291.148 128.14 291.907 127.846 293.072 128.242C294.371 128.683 295.492 129.148 295.772 130.491C295.999 131.579 295.392 132.209 294.872 133.191C293.942 134.948 292.841 135.571 291.272 136.791C288.791 138.721 286.985 139.208 284.072 140.391C279.846 142.108 276.82 141.341 272.823 143.541C270.944 144.575 268.323 144.546 268.323 146.691C268.323 149.84 277.307 151.2 278.223 156.59C278.487 158.149 279.147 159.356 278.223 160.64C277.345 161.858 276.104 161.745 274.623 161.99C270.949 162.598 269.2 159.875 265.623 158.84C261.815 157.737 259.666 157.016 255.724 156.59C252.055 156.193 246.275 156.59 246.275 156.59L244.925 134.991L234.575 128.242Z" fill="#C0C0C0"/>
<path d="M289.921 128.242C286.211 128.551 284.585 130.723 280.922 131.392C280.022 131.842 280.02 131.844 279.572 132.292L279.572 132.292C279.124 132.74 278.548 133.02 278.672 133.642C278.796 134.263 279.425 134.328 280.022 134.541C281.387 135.029 282.268 134.16 283.622 133.642C284.723 133.22 285.198 132.648 286.322 132.292C287.34 131.969 287.964 131.999 289.021 131.842C290.423 131.633 291.234 131.68 292.621 131.392C293.874 131.131 296.051 131.835 295.771 130.492C295.491 129.148 294.371 128.683 293.071 128.242C291.907 127.846 291.147 128.14 289.921 128.242Z" fill="#D6D6D6"/>
<path d="M271.926 117.442C268.325 119.692 266.075 121.492 266.075 121.492C266.075 121.492 265.081 122.323 265.625 123.292C266.334 124.556 267.842 124.622 269.226 124.192C270.304 123.714 270.858 123.34 271.926 122.842C273.139 122.277 273.925 122.175 275.076 121.492C276.682 120.539 277.095 119.338 278.676 118.342C279.673 117.714 280.724 117.975 281.376 116.992C281.871 116.246 283.459 115.791 281.826 114.743C280.192 113.695 278.756 114.71 276.876 115.193C274.819 115.72 273.727 116.317 271.926 117.442Z" fill="#D6D6D6"/>
<path d="M239.526 127.342C237.668 127.979 236.243 127.201 234.577 128.241C230.484 130.797 240.167 135.787 244.926 134.991C247.572 134.548 248.335 132.504 250.776 131.391C252.142 130.768 253.162 130.925 254.375 130.041C255.485 129.234 256.169 128.636 256.625 127.342C257.348 125.292 254.943 124.09 255.275 121.942C255.679 119.337 257.76 118.663 259.325 116.542C260.744 114.619 261.267 113.314 262.925 111.592C264.486 109.971 267.979 108.675 267.425 107.993C266.871 107.311 266.469 106.886 265.625 106.643C264.598 106.346 262.925 107.093 262.925 107.093C262.925 107.093 254.294 114.911 248.976 120.142C247.204 121.885 246.479 123.17 244.476 124.642C242.702 125.945 241.609 126.627 239.526 127.342Z" fill="#D6D6D6"/>
<path d="M145.831 421C147.378 418.822 149.946 415.533 149.946 415.533L166.408 418.267L176.98 414.424L184.241 398.675C184.241 398.675 185.995 403.089 186.985 405.965C187.957 408.786 188.817 410.307 189.271 413.255C190.177 419.125 188.983 422.695 186.985 428.29C184.028 436.572 179.901 440.237 173.724 446.514C167.748 452.588 156.348 459.727 156.348 459.727C156.348 459.727 143.899 465.706 138.057 461.55C134.913 459.313 133.694 457.031 132.57 453.349C130.653 447.071 133.838 443.061 136.228 436.947C138.873 430.179 141.62 426.929 145.831 421Z" fill="#C0C0C0"/>
<path d="M186.985 405.965C185.995 403.089 184.242 398.675 184.242 398.675C184.242 398.675 174.584 408.09 176.98 414.424C178.256 417.797 182.047 417.785 183.28 421.174C185.161 426.346 181.808 429.81 179.23 434.673C177.172 438.555 175.421 440.409 172.48 443.673C169.149 447.37 167.648 448.985 164.381 452.222C161.332 455.244 156.348 459.727 156.348 459.727C156.348 459.727 167.748 452.588 173.724 446.514C179.901 440.237 184.028 436.572 186.985 428.29C188.983 422.695 190.177 419.125 189.272 413.255C188.817 410.307 187.957 408.786 186.985 405.965Z" fill="#9C9C9C"/>
<path d="M145.832 421.001C141.622 426.929 138.874 430.18 136.229 436.947C133.84 443.061 130.656 447.072 132.571 453.349C133.695 457.035 135.582 460.322 138.058 461.55C137.835 460.14 137.38 460.882 136.933 458.072C136.486 455.262 135.873 452.58 136.229 449.073C136.658 444.84 137.842 442.583 139.633 438.723C141.553 434.586 142.534 431.975 145.832 428.824C147.295 427.426 148.279 426.82 149.947 425.674C155.757 421.682 167.526 423.87 166.409 418.267C165.134 411.876 149.947 415.533 149.947 415.533C149.947 415.533 147.379 418.822 145.832 421.001Z" fill="#D6D6D6"/>
<path d="M57.7365 173.239C68.9857 173.239 71.5969 173.193 80.2351 171.439C88.9485 169.671 93.8333 168.118 101.834 164.24C109.159 160.689 113.185 158.268 119.383 152.99C124.684 148.476 128.832 143.991 131.532 139.941C133.332 142.191 133.242 143.218 135.132 144.441C135.792 144.868 136.185 145.096 136.932 145.341C140.157 146.396 141.737 143.007 145.031 142.191C149.139 141.173 151.611 141.608 155.831 141.291C164.958 140.604 170.101 140.609 179.229 139.941C187.321 139.349 191.929 139.502 199.928 138.141C212.805 135.95 218.831 128.895 231.876 128.242C234.509 128.11 236.053 127.67 238.626 128.242C244.338 129.512 246.406 133.429 249.875 138.141C252.345 141.496 254.161 143.478 254.825 147.591C255.599 152.389 255.364 156.116 252.125 159.74C248.489 163.808 243.668 161.255 238.626 163.34C232.944 165.689 231.013 169.664 225.126 171.439C221.224 172.616 218.724 171.77 214.777 172.789C207.7 174.616 204.919 178.637 198.128 181.339C193.326 183.249 190.609 184.437 185.529 185.388C181.885 186.071 179.779 186.058 176.079 186.288C169.064 186.725 168.43 184.488 159.88 186.288C159.88 188.538 159.929 189.352 161.23 191.238C164.068 195.349 166.259 197.198 169.33 201.137C180.418 215.36 181.828 227.032 194.528 239.835C196.093 241.412 197.391 241.931 198.634 243.772C200.356 246.324 199.34 248.68 200.94 251.309C203.562 255.617 207.096 256.301 211.543 258.678C214.841 260.44 217.153 260.499 220.346 262.446C224.159 264.773 225.77 266.846 228.951 269.983C231.586 272.581 232.74 274.349 235.363 276.958C239.05 280.624 242.214 281.605 245.375 285.732C248.148 289.351 249.453 291.719 250.775 296.082C251.856 299.649 252.323 301.809 252.125 305.531C251.891 309.918 250.188 312.108 248.975 316.331C246.255 325.796 245.578 331.369 242.225 340.629C238.879 349.873 234.69 354.158 231.876 363.578C230.534 368.071 232.478 371.948 229.176 375.277C226.202 378.277 223.051 378.349 218.827 378.427C214.651 378.504 212.208 377.607 208.477 375.727C205.887 374.422 204.379 373.576 202.403 371.452C200.019 368.891 196.745 367.052 196.328 363.578C194.978 352.328 197.019 348.459 199.478 339.279C200.694 334.74 203.547 332.725 203.753 328.03C203.918 324.26 203.37 321.979 201.728 318.58C193.178 313.631 188.229 313.631 172.03 310.481C171.13 310.481 168.43 310.481 166.63 319.03C165.73 324.88 167.33 330.619 169.33 338.379C171.18 345.561 171.701 349.724 173.83 356.828C176.687 366.364 179.488 371.3 182.829 380.677C184.452 385.231 186.204 387.589 186.879 392.376C187.369 395.856 187.457 397.909 186.879 401.376C185.845 407.577 184.368 411.441 180.579 416.675C178.61 419.394 177.711 421.431 174.729 422.974C171.437 424.678 168.986 423.798 165.28 423.874C161.762 423.947 159.738 424.081 156.281 423.424C153.387 422.875 151.512 422.837 149.081 421.174C146.815 419.625 146.208 417.985 144.581 415.775C139.503 408.875 137.6 404.024 134.232 395.976C129.917 385.666 128.555 379.438 126.132 368.528C125.124 363.986 124.889 361.371 123.883 356.828C121.909 347.92 122.803 345.966 118.483 337.929C115.978 333.269 111.776 328.175 109.708 323.305C107.715 318.61 108.585 315.058 106.334 310.481C103.426 304.571 103.634 310.481 96.8841 296.982C90.8309 284.875 83.3841 279.882 79.7851 266.834C79.1618 264.573 78.9197 263.278 78.4352 260.984C77.8441 258.185 77.6409 256.59 77.0853 253.784C75.5454 246.006 74.8353 237.135 72.5856 233.985C71.7118 233.893 71.2132 233.941 70.3357 233.985C63.136 234.351 69.1054 260.931 62.2362 276.283C60.9523 279.152 59.4777 280.454 58.6364 283.483C57.4606 287.715 59.5607 290.437 58.6364 294.732C57.6112 299.496 56.4516 302.319 53.2367 305.981C50.4065 309.205 48.3158 310.951 44.2373 312.281C39.8936 313.698 37.0855 312.722 32.538 312.281C28.627 311.901 26.0342 312.458 22.6385 310.481C19.7373 308.792 18.0738 307.283 16.7889 304.181C15.3766 300.772 17.186 298.401 16.7889 294.732C16.4217 291.34 15.5308 289.551 14.989 286.182C14.5114 283.213 13.6819 281.513 14.0891 278.533C14.39 276.331 15.3704 275.295 15.889 273.133C16.6721 269.869 16.7159 267.94 16.7889 264.584C16.8809 260.353 15.6799 258.011 15.889 253.784C16.0203 251.128 16.4454 249.672 16.7889 247.035C17.7265 239.837 17.0014 235.552 19.0388 228.586C19.772 226.079 20.1619 224.643 21.2886 222.286C22.4456 219.866 23.4001 218.668 24.8884 216.437C26.7021 213.717 28.0485 212.422 29.8381 209.687C33.7104 203.768 34.1974 199.491 37.9376 193.488C39.7419 190.592 40.6678 188.88 42.8873 186.288C46.7079 181.828 48.8852 178.248 54.5866 176.839C55.6243 176.582 56.4986 177.111 57.2865 176.389C58.2023 175.549 57.3996 174.435 57.7365 173.239Z" fill="url(#paint2_linear_31_6)"/>
<path d="M198.639 243.772C197.396 241.931 196.097 241.412 194.533 239.835C181.832 227.032 180.423 215.36 169.334 201.137C166.263 197.198 164.072 195.349 161.235 191.238C159.933 189.352 159.885 186.288 159.885 186.288C159.885 186.288 155.38 185.326 153.134 183.588C148.111 179.703 149.983 167.839 149.084 167.839C139.515 167.84 150.495 182.729 152.235 192.138C153.282 197.798 153.706 201.031 155.385 206.537C158.389 216.387 161.02 221.753 166.634 230.386C173.079 240.295 176.547 247.149 186.883 252.884C195.535 257.685 215.994 261.054 211.547 258.678C207.1 256.301 203.566 255.617 200.945 251.309C199.345 248.68 200.361 246.324 198.639 243.772Z" fill="url(#paint3_linear_31_6)"/>
<path d="M159.882 186.288C168.431 184.488 169.066 186.725 176.081 186.288C183.096 185.851 168.453 184.506 164.382 181.788C161.383 179.787 160.027 178.184 157.632 175.489C155.04 172.572 149.083 167.839 149.083 167.839C149.083 167.839 148.898 172.877 149.533 175.489C150.269 178.515 149.95 180.853 152.233 183.138C154.402 185.309 159.882 186.288 159.882 186.288Z" fill="url(#paint4_linear_31_6)"/>
<path d="M172.031 310.481C188.23 313.63 193.18 313.63 201.729 318.58C203.371 321.978 203.919 324.259 203.754 328.029C203.548 332.725 200.695 334.739 199.479 339.279C197.02 348.459 194.98 352.328 196.33 363.577C196.746 367.052 200.021 368.89 202.404 371.452C204.788 374.014 205.723 369.618 205.779 367.627C205.837 365.569 203.423 365.366 202.404 363.577C200.295 359.874 200.537 357.03 200.829 352.778C201.214 347.176 203.996 344.603 205.779 339.279C207.933 332.847 211.863 329.317 210.729 322.63C209.806 317.192 207.693 314.097 203.529 310.481C198.368 305.999 193.711 304.841 186.88 305.081C180.713 305.298 173.38 307.331 172.031 310.481Z" fill="#CC9E54"/>
<path d="M104.057 205.637L105.857 204.287C105.857 204.287 106.48 211.418 106.307 215.987C106.132 220.583 106.26 223.275 104.957 227.686C103.239 233.497 99.6929 235.615 97.307 241.185C95.8409 244.608 94.1572 250.185 94.1572 250.185C94.1572 250.185 91.3411 238.308 92.8073 234.886C95.1931 229.316 98.7393 227.197 100.457 221.386C101.761 216.976 101.632 214.283 101.807 209.687C104.057 205.637 104.057 205.637 104.057 205.637Z" fill="url(#paint5_linear_31_6)"/>
<path d="M57.2865 176.389C56.4987 177.111 55.6243 176.582 54.5867 176.839C48.8852 178.248 46.7079 181.828 42.8874 186.288C40.6678 188.88 39.742 190.592 37.9376 193.488C34.1974 199.491 33.7104 203.768 29.8381 209.687C28.0485 212.422 26.7021 213.717 24.8884 216.437C23.4001 218.668 22.4456 219.866 21.2886 222.286C20.1619 224.643 19.772 226.079 19.0388 228.586C17.0014 235.552 17.7265 239.837 16.7889 247.035C16.4454 249.672 16.0203 251.128 15.889 253.784C15.6799 258.011 16.8809 260.353 16.7889 264.584C16.7159 267.94 16.6721 269.869 15.889 273.133C15.3704 275.295 14.39 276.331 14.0891 278.533C13.6819 281.513 14.5114 283.213 14.989 286.183C15.5308 289.551 16.4217 291.34 16.7889 294.732C17.186 298.401 15.3766 300.772 16.7889 304.181C18.0738 307.283 19.7373 308.792 22.6386 310.481C26.0342 312.458 28.627 311.902 32.538 312.281C36.4489 312.66 33.1803 294.375 34.7877 283.033C36.8095 268.766 38.9602 260.899 42.8874 247.035C46.7342 233.454 49.1571 225.866 54.5867 212.837C60.7233 198.111 87.7626 182.522 73.0355 176.389H57.2865Z" fill="#F5C16E"/>
<path d="M156.281 423.424C159.738 424.08 165.28 423.874 165.28 423.874C174.231 420.802 159.583 410.243 156.281 401.375C153.294 393.355 151.544 388.873 149.081 380.676C147.094 374.063 147.744 369.715 144.581 363.577C142.054 358.672 138.618 357.202 136.032 352.328C131.492 343.774 131.976 337.672 131.082 328.029C130.319 319.806 131.082 315.14 131.082 306.881C131.082 300.379 131.644 296.709 131.082 290.232C130.605 284.734 132.476 280.426 128.832 276.282C125.922 272.973 122.883 241.623 118.483 241.379C113.431 241.099 110.407 242.877 106.334 245.879C99.1802 251.15 90.1346 283.482 96.8842 296.981C103.634 310.48 103.426 304.57 106.334 310.48C108.585 315.057 107.715 318.61 109.708 323.305C111.776 328.175 115.978 333.269 118.483 337.929C122.803 345.965 121.909 347.919 123.883 356.828C124.889 361.37 125.124 363.985 126.132 368.527L126.203 368.843C128.581 379.559 129.959 385.765 134.232 395.975C137.6 404.023 139.344 408.796 144.581 415.774C146.229 417.969 146.815 419.624 149.081 421.174C151.512 422.837 153.387 422.874 156.281 423.424Z" fill="#F5C16E"/>
<path d="M108.48 174.612L110.012 173.666C110.012 173.666 118.083 183.927 122.615 190.942C131.077 204.038 133.089 212.924 140.616 226.578C144.691 233.969 147.354 237.899 151.417 245.296C157.379 256.152 162.279 261.685 165.816 273.554C168.994 284.215 169.417 301.812 169.417 301.812L167.885 302.758C167.885 302.758 167.463 285.161 164.285 274.5C160.747 262.631 155.848 257.098 149.885 246.242C145.823 238.845 143.159 234.915 139.085 227.524C131.558 213.87 129.545 204.984 121.084 191.888C116.552 184.873 108.48 174.612 108.48 174.612Z" fill="url(#paint6_linear_31_6)"/>
<path d="M134.233 143.99C134.233 143.99 135.59 144.848 136.483 145.16C138.283 145.79 138.212 145.518 139.183 145.34C140.983 144.89 141.779 143.398 143.683 142.64C144.871 142.167 145.58 142.002 146.833 141.74C149.075 141.271 150.396 141.438 152.682 141.29C156.894 141.018 159.265 141.029 163.482 140.84C167.172 140.675 169.243 140.603 172.931 140.39C177.856 140.106 180.607 139.803 185.53 139.49C188.517 139.3 193.18 139.04 193.18 139.04C193.998 139.889 194.175 140.616 194.53 141.74C195.952 146.253 193.413 149.681 190.03 152.989C186.215 156.72 182.282 156.429 176.981 157.039C170.117 157.83 166.305 155.494 159.432 154.789C147.001 153.515 127.484 152.989 127.484 152.989L131.533 148.49L134.233 143.99Z" fill="#EDB760"/>
<path d="M57.7377 175.489C57.7377 175.489 85.4406 177.015 101.609 170.54C117.171 164.306 134.502 143.991 134.502 143.991C134.904 144.308 135.14 144.472 135.582 144.738C135.582 144.738 118.04 165.383 102.735 171.889C86.1439 178.943 57.2869 176.389 57.2869 176.389C57.6073 176.091 57.6733 175.888 57.7377 175.489Z" fill="url(#paint7_linear_31_6)"/>
<path d="M57.7377 175.489C57.7377 175.489 85.4406 177.015 101.609 170.54C117.171 164.306 134.502 143.991 134.502 143.991C134.904 144.308 135.14 144.472 135.582 144.738C135.582 144.738 118.04 165.383 102.735 171.889C86.1439 178.943 57.2869 176.389 57.2869 176.389C57.6073 176.091 57.6733 175.888 57.7377 175.489Z" fill="url(#paint8_linear_31_6)"/>
<path d="M68.9871 204.287H69.887C69.887 204.287 73.8159 213.967 73.9368 220.486C74.0355 225.809 71.6869 233.931 71.6869 233.931C70.8148 233.961 71.1701 233.958 70.787 233.958C70.787 233.958 73.2069 225.541 73.0368 220.036C72.8407 213.689 68.9871 204.287 68.9871 204.287Z" fill="url(#paint9_linear_31_6)"/>
<path d="M1.0296 90.0823C2.27946 84.1915 3.73083 80.9564 6.8045 75.6831C9.70067 70.7144 11.8954 68.1865 15.9481 63.9838C21.6684 58.0518 25.5313 55.1433 32.7916 50.9346C39.7978 46.8731 44.1935 45.1948 52.0412 42.8351C60.6029 40.2607 65.6733 39.1211 74.6596 38.7853C81.8177 38.5178 85.9203 38.8298 92.9468 40.1352C97.1502 40.9162 99.5835 41.282 103.534 42.8351C107.338 44.3303 109.385 45.4596 112.678 47.7848C121.081 53.7196 123.38 59.6705 128.077 68.4836C130.522 73.0689 131.601 75.7843 133.371 80.6328C135.198 85.6358 136.329 88.462 137.221 93.6821C138.497 101.144 139.326 105.736 137.221 113.031C135.513 118.95 133.308 121.976 129.521 126.98C126.141 131.448 123.88 133.79 119.415 137.329C113.883 141.714 109.913 143.103 103.534 146.329C95.6944 150.293 91.3247 152.775 82.8407 155.328C70.5695 159.021 62.6962 162.011 50.1163 159.378C43.542 158.002 39.9431 156.425 34.2353 153.079C29.7092 150.425 27.4816 148.458 23.648 144.979C15.5267 137.61 11.372 132.612 6.8045 122.93C1.19298 111.036 -1.67595 102.834 1.0296 90.0823Z" fill="url(#paint10_linear_31_6)"/>
<path d="M9.06032 117.08L31.1086 153.078C31.1086 153.078 24.4735 153.407 20.7592 151.728C16.5681 149.834 14.9075 147.353 12.2097 143.629C9.58177 140 8.37776 137.618 7.26004 133.279C5.8133 127.664 9.06032 117.08 9.06032 117.08Z" fill="#B7B6B2"/>
<path d="M123.885 71.5453C123.885 71.5453 133.044 74.7507 135.506 76.5831C137.601 78.1429 138.558 79.3581 140.006 81.5328C142.285 84.9573 143.005 87.3626 143.605 91.4322C144.041 94.3876 144.041 96.1264 143.605 99.0818C143.005 103.151 135.506 115.643 135.506 115.643L123.885 71.5453Z" fill="#B7B7C3"/>
<g filter="url(#filter0_f_31_6)">
<path d="M132.808 80.6975L134.807 79.2833C134.807 79.2833 136.764 82.3817 137.805 84.4688C139.225 87.3151 139.875 88.9897 140.804 92.0113C141.251 93.4694 142.03 94.2796 141.803 95.7825C141.581 97.2519 139.804 99.0824 139.804 99.0824C139.804 99.0824 138.788 94.4309 137.805 91.5399C136.31 87.1435 132.808 80.6975 132.808 80.6975Z" fill="#62635E" fill-opacity="0.5"/>
</g>
<path d="M8.16289 97.2811C9.33155 91.3903 10.6886 88.1552 13.5626 82.8819C16.2706 77.9131 18.3227 75.3853 22.1121 71.1826C27.4607 65.2506 31.0727 62.3421 37.8612 58.1333C44.4122 54.0718 48.5223 52.3935 55.8601 50.0338C63.8655 47.4595 68.6064 46.3199 77.0089 45.9841C83.7019 45.7166 87.538 46.0285 94.1079 47.334C98.0382 48.1149 100.313 48.4808 104.007 50.0338C107.564 51.529 109.478 52.6583 112.557 54.9835C120.414 60.9184 122.564 66.8693 126.956 75.6823C129.241 80.2676 130.251 82.9831 131.906 87.8316C133.613 92.8346 134.671 95.6607 135.505 100.881C136.698 108.342 137.474 112.934 135.505 120.23C133.909 126.148 131.846 129.174 128.306 134.179C125.145 138.647 123.031 140.989 118.856 144.528C113.684 148.913 109.972 150.302 104.007 153.528C96.677 157.492 92.5912 159.974 84.6584 162.527C73.1845 166.22 65.8228 169.21 54.0602 166.577C47.9131 165.201 44.5481 163.624 39.2111 160.277C34.979 157.624 32.8962 155.657 29.3117 152.178C21.7181 144.809 17.8333 139.811 13.5626 130.129C8.31567 118.235 5.63314 110.033 8.16289 97.2811Z" fill="url(#paint11_linear_31_6)"/>
<path d="M25.2619 105.381C29.3114 98.6314 30.9057 96.3173 35.6113 91.4319C41 85.8372 44.7104 83.297 51.3604 79.2825C57.8222 75.3816 61.8158 73.7625 68.9094 71.183C78.8085 67.5833 83.7582 66.6833 91.858 66.6833C97.5819 66.6834 101.417 70.2458 104.907 74.7828C109.407 80.6325 110.426 81.9726 113.907 88.7319C116.686 94.1279 119.756 103.131 119.756 103.131C119.756 103.131 121.87 110.78 119.756 114.83C114.357 125.18 104.774 133.462 91.858 140.929C78.3787 148.721 74.3088 151.728 53.6103 150.828C43.7106 148.578 28.5781 133.995 25.262 116.63C24.5667 112.989 23.3548 108.56 25.2619 105.381Z" fill="url(#paint12_linear_31_6)"/>
<path d="M44.6099 83.3323C51.1283 78.4742 55.588 76.1883 63.0589 72.983C70.3134 69.8705 74.5734 68.1019 82.4077 67.1332C85.2035 66.7875 89.6073 66.6833 89.6073 66.6833C89.6073 66.6833 72.8684 84.2053 67.1086 98.1814C60.7547 113.599 61.259 140.479 61.259 140.479L42.3601 142.279C42.3601 142.279 25.6197 113.544 28.4111 101.781C29.3109 97.9901 31.8612 95.0862 35.1605 91.4318C38.405 87.8381 40.7279 86.2255 44.6099 83.3323Z" fill="url(#paint13_linear_31_6)"/>
<path fill-rule="evenodd" clip-rule="evenodd" d="M34.2338 90.6888C29.3527 95.7828 27.6987 98.1959 23.4986 105.234C21.7392 108.181 22.5389 112.16 23.2446 115.675C23.3325 116.113 23.4187 116.543 23.4986 116.963C26.9385 135.07 42.6357 150.276 52.9051 152.622C73.3542 153.515 78.1563 150.713 90.6474 143.425L92.58 142.299C105.978 134.514 115.918 125.878 121.519 115.087C123.712 110.863 121.519 102.888 121.519 102.888C121.519 102.888 118.334 93.5 115.451 87.8736C111.84 80.8256 110.784 79.4282 106.116 73.3288C102.496 68.598 98.5176 64.8834 92.58 64.8834C84.1773 64.8834 79.0431 65.8218 68.7745 69.5752C61.4168 72.2649 57.2738 73.9531 50.5708 78.0207C43.6727 82.2065 39.8242 84.8552 34.2338 90.6888ZM35.6092 91.4319C30.9039 96.3173 29.3096 98.6314 25.2599 105.381C23.5645 108.207 24.3344 112.022 25.0147 115.393C25.099 115.813 25.1825 116.227 25.2599 116.63C28.5766 133.995 43.7087 148.578 53.6082 150.828C73.3217 151.685 77.9524 148.998 89.9936 142.009C90.5947 141.659 91.2143 141.3 91.8559 140.929C104.772 133.463 114.355 125.18 119.754 114.83C121.868 110.78 119.754 103.131 119.754 103.131C119.754 103.131 116.683 94.128 113.905 88.7319C110.423 81.9725 109.405 80.6325 104.905 74.7827C101.415 70.2458 97.5798 66.6833 91.8559 66.6833C83.7563 66.6833 78.8066 67.5833 68.9072 71.1829C61.814 73.7625 57.8205 75.3816 51.3583 79.2825C44.7089 83.297 40.9984 85.8372 35.6092 91.4319Z" fill="url(#paint14_linear_31_6)"/>
<path d="M228.67 319.512C232.456 315.944 236.686 308.682 236.686 308.682C236.686 308.682 235.795 311.498 235.083 313.242C233.438 317.266 231.953 319.144 228.67 321.791C225.4 324.429 219.587 325.781 219.587 325.781C219.587 325.781 225.504 322.496 228.67 319.512Z" fill="#CC9E54"/>
<path d="M53.3081 112.485L73.7273 92.0657L63.4848 92L43 112.419V120.758H63.4848V131H73.6616V112.485H53.3081Z" fill="white" stroke="white"/>
<path d="M78.0605 92V102.177L88.303 92.0657V102.177L78.0605 112.485V122.727H98.5454V112.485L88.303 122.662V112.485L98.5454 102.308V92H78.0605Z" fill="white" stroke="white"/>
<defs>
<filter id="filter0_f_31_6" x="128.808" y="75.2833" width="17.0361" height="27.7991" filterUnits="userSpaceOnUse" color-interpolation-filters="sRGB">
<feFlood flood-opacity="0" result="BackgroundImageFix"/>
<feBlend mode="normal" in="SourceGraphic" in2="BackgroundImageFix" result="shape"/>
<feGaussianBlur stdDeviation="2" result="effect1_foregroundBlur_31_6"/>
</filter>
<linearGradient id="paint0_linear_31_6" x1="116.232" y1="138.591" x2="55.4858" y2="171.889" gradientUnits="userSpaceOnUse">
<stop stop-color="#778186"/>
<stop offset="1" stop-color="#474B4C"/>
</linearGradient>
<linearGradient id="paint1_linear_31_6" x1="117.135" y1="141.291" x2="58.6383" y2="172.789" gradientUnits="userSpaceOnUse">
<stop stop-color="#C1C1C1"/>
<stop offset="1" stop-color="#929292"/>
</linearGradient>
<linearGradient id="paint2_linear_31_6" x1="13.98" y1="276.594" x2="255.195" y2="276.594" gradientUnits="userSpaceOnUse">
<stop stop-color="#F5C16E"/>
<stop offset="1" stop-color="#CC9E54"/>
</linearGradient>
<linearGradient id="paint3_linear_31_6" x1="177.882" y1="139.041" x2="122.985" y2="432.873" gradientUnits="userSpaceOnUse">
<stop stop-color="#CC9E54"/>
<stop offset="1" stop-color="#E5BA75"/>
</linearGradient>
<linearGradient id="paint4_linear_31_6" x1="149.058" y1="177.13" x2="177.955" y2="177.13" gradientUnits="userSpaceOnUse">
<stop stop-color="#F5C16E"/>
<stop offset="1" stop-color="#CC9E54"/>
</linearGradient>
<linearGradient id="paint5_linear_31_6" x1="92.3843" y1="208.877" x2="115.88" y2="215.306" gradientUnits="userSpaceOnUse">
<stop stop-color="#F5C16E" stop-opacity="0.08"/>
<stop offset="0.997988" stop-color="#E5BA75" stop-opacity="0.94"/>
</linearGradient>
<linearGradient id="paint6_linear_31_6" x1="108.48" y1="238.473" x2="169.417" y2="238.473" gradientUnits="userSpaceOnUse">
<stop stop-color="#F5C16E"/>
<stop offset="0.9999" stop-color="#22282C" stop-opacity="0.01"/>
<stop offset="1" stop-color="#CC9E54"/>
</linearGradient>
<linearGradient id="paint7_linear_31_6" x1="88.7859" y1="167.39" x2="91.4857" y2="175.939" gradientUnits="userSpaceOnUse">
<stop stop-color="#D48845"/>
<stop offset="1" stop-color="#4E3219"/>
</linearGradient>
<linearGradient id="paint8_linear_31_6" x1="128.834" y1="148.041" x2="134.683" y2="147.591" gradientUnits="userSpaceOnUse">
<stop stop-color="#B79358"/>
<stop offset="1" stop-color="#4E3219"/>
</linearGradient>
<linearGradient id="paint9_linear_31_6" x1="68.9871" y1="219.183" x2="73.9398" y2="219.183" gradientUnits="userSpaceOnUse">
<stop stop-color="#F5C16E"/>
<stop offset="1" stop-color="#CC9E54"/>
</linearGradient>
<linearGradient id="paint10_linear_31_6" x1="5.39968" y1="82.7946" x2="112.043" y2="99.8936" gradientUnits="userSpaceOnUse">
<stop stop-color="#9F9F9F"/>
<stop offset="1" stop-color="#787877"/>
</linearGradient>
<linearGradient id="paint11_linear_31_6" x1="7.20019" y1="98.9929" x2="89.5454" y2="101.243" gradientUnits="userSpaceOnUse">
<stop stop-color="#CBCBCB"/>
<stop offset="1" stop-color="#828380"/>
</linearGradient>
<linearGradient id="paint12_linear_31_6" x1="27.0616" y1="109.881" x2="118.856" y2="112.131" gradientUnits="userSpaceOnUse">
<stop stop-color="#212930"/>
<stop offset="0.390625" stop-color="#252525"/>
<stop offset="0.970597" stop-color="#010005"/>
</linearGradient>
<linearGradient id="paint13_linear_31_6" x1="90.0572" y1="71.633" x2="41.4601" y2="106.731" gradientUnits="userSpaceOnUse">
<stop stop-color="#FFF9FF" stop-opacity="0.36"/>
<stop offset="1" stop-color="#1B0A5D" stop-opacity="0"/>
</linearGradient>
<linearGradient id="paint14_linear_31_6" x1="22.8018" y1="108.945" x2="122.88" y2="112.746" gradientUnits="userSpaceOnUse">
<stop stop-color="#5B5C59"/>
<stop offset="1" stop-color="#3F403E"/>
</linearGradient>
</defs>
</svg>
